<svg xmlns="http://www.w3.org/2000/svg" xmlns:xlink="http://www.w3.org/1999/xlink" width="25" height="25" viewBox="0 0 25 25"><defs><style>.a{fill:none;}.b{clip-path:url(#a);}.c{fill:#fff;}</style><clipPath id="a"><rect class="a" width="25" height="25"/></clipPath></defs><g class="b"><path class="c" d="M41.511,28.1a.628.628,0,0,0,.54.675h0a.628.628,0,0,0,.54-.675,3.2,3.2,0,0,0-2.52-3.262v-.759a.553.553,0,1,0-1.08,0v.759a2.643,2.643,0,0,0-1.8,1.012,3.915,3.915,0,0,0-.72,2.222,3.832,3.832,0,0,0,.63,2.362,2.688,2.688,0,0,0,1.89,1.1v4.05a1.9,1.9,0,0,1-1.44-1.884.645.645,0,0,0-.54-.675.628.628,0,0,0-.54.675,3.2,3.2,0,0,0,2.52,3.262v.759a.553.553,0,1,0,1.08,0v-.759a2.643,2.643,0,0,0,1.8-1.012,3.915,3.915,0,0,0,.72-2.222,3.832,3.832,0,0,0-.63-2.362,2.688,2.688,0,0,0-1.89-1.1v-4.05A1.884,1.884,0,0,1,41.511,28.1Zm-2.52,2.053a1.617,1.617,0,0,1-1.08-.619,2.453,2.453,0,0,1-.36-1.378v-.084a2.453,2.453,0,0,1,.427-1.322,1.626,1.626,0,0,1,1.012-.562Zm2.16,2.081a2.453,2.453,0,0,1,.36,1.378v.084a2.453,2.453,0,0,1-.427,1.322,1.626,1.626,0,0,1-1.012.562V31.612A1.617,1.617,0,0,1,41.151,32.231Z" transform="translate(-27.005 -18.383)"/><path class="c" d="M19.837,26.1H7.363A6.273,6.273,0,0,1,1.1,19.837V7.363A6.273,6.273,0,0,1,7.363,1.1H19.837A6.273,6.273,0,0,1,26.1,7.363V19.837A6.273,6.273,0,0,1,19.837,26.1ZM7.363,2.25A5.128,5.128,0,0,0,2.25,7.363V19.837A5.128,5.128,0,0,0,7.363,24.95H19.837a5.128,5.128,0,0,0,5.112-5.112V7.363A5.128,5.128,0,0,0,19.837,2.25H7.363Z" transform="translate(-1.1 -1.1)"/></g></svg>