<svg xmlns="http://www.w3.org/2000/svg" xmlns:xlink="http://www.w3.org/1999/xlink" width="265" height="183" viewBox="0 0 265 183"><defs><style>.a{fill:none;}.b{fill:#162fe8;}.c,.d,.e,.f,.g{fill:#fff;}.c{opacity:0.1;}.e{font-size:16px;}.e,.f,.g{font-family:NotoSansCJKtc-Regular, Noto Sans CJK TC;letter-spacing:0.1em;}.f{font-size:12px;}.g{font-size:9px;}.h{clip-path:url(#c);}.i{filter:url(#a);}</style><filter id="a" x="0" y="0" width="265" height="183" filterUnits="userSpaceOnUse"><feOffset dy="3" input="SourceAlpha"/><feGaussianBlur stdDeviation="3" result="b"/><feFlood flood-color="#0d1648" flood-opacity="0.502"/><feComposite operator="in" in2="b"/><feComposite in="SourceGraphic"/></filter><clipPath id="c"><rect class="a" width="129" height="4"/></clipPath></defs><g transform="translate(-16 -397)"><g class="i" transform="matrix(1, 0, 0, 1, 16, 397)"><path class="b" d="M10,0H237a10,10,0,0,1,10,10V155a10,10,0,0,1-10,10H10A10,10,0,0,1,0,155V10A10,10,0,0,1,10,0Z" transform="translate(9 6)"/></g><path class="c" d="M25,512.723a57.519,57.519,0,0,1,37.144-12.562c15.7.433,25.393,13.536,87.6,16.691S242.366,568,242.366,568H25Z"/><path class="c" d="M121,531.474c-3.858,3.88-49-13.943-70.148-7.074S25,500.139,25,500.139h96Z" transform="translate(151 -97.139)"/><g transform="translate(137 247.092)"><g transform="translate(65.13 175.209)"><path class="d" d="M290.025,189.563a.435.435,0,0,0,.364.2h3.12a.435.435,0,0,0,.407-.281c.383-1.012.63-1.656.711-1.864l2.193,0h.058l2.735,0h0c.089.379.308,1.383.4,1.8a.435.435,0,0,0,.425.342h2.721a.435.435,0,0,0,.425-.528l-2.959-13.4a.435.435,0,0,0-.425-.341H297.54a1.931,1.931,0,0,0-2.039,1.185l-5.51,12.479A.436.436,0,0,0,290.025,189.563Zm7.792-10.227.263,1.234.9,4.122h-3.234Z" transform="translate(-257.366 -175.446)"/><path class="d" d="M215.662,189.13a12.753,12.753,0,0,0,3.835.6h0c3.941,0,6.505-1.848,6.534-4.706.015-1.571-.987-2.76-3.142-3.734-1.319-.641-2.127-1.066-2.12-1.718,0-.586.739-1.179,2.159-1.179h.115a6.84,6.84,0,0,1,2.535.468.435.435,0,0,0,.585-.333l.352-2.069a.435.435,0,0,0-.3-.487,9.947,9.947,0,0,0-3-.454c-3.714,0-6.323,1.869-6.344,4.543-.023,1.98,1.865,3.085,3.289,3.743,1.46.673,1.951,1.1,1.944,1.708-.01.924-1.17,1.344-2.244,1.344a7.926,7.926,0,0,1-3.517-.715.435.435,0,0,0-.6.328l-.373,2.179A.435.435,0,0,0,215.662,189.13Z" transform="translate(-193.594 -175.471)"/><path class="d" d="M65.417,176.053a12.7,12.7,0,0,1,5.892,4.114.435.435,0,0,0,.772-.353l-.725-3.427-.005-.022a1.589,1.589,0,0,0-1.684-1.149h-.017l-4.085-.007h0a.435.435,0,0,0-.147.844Z" transform="translate(-65.13 -175.209)"/><path class="d" d="M170.55,189.516a.435.435,0,0,0,.332.154h3.01a.435.435,0,0,0,.429-.362l2.287-13.413a.435.435,0,0,0-.428-.508h-3.012a.435.435,0,0,0-.429.362l-2.285,13.413A.435.435,0,0,0,170.55,189.516Z" transform="translate(-155.182 -175.361)"/><path class="d" d="M84.057,178.545a.435.435,0,0,0-.682.467l3.045,10.4a.435.435,0,0,0,.417.313h0l3.507-.005a.435.435,0,0,0,.4-.263L96.5,176.075a.435.435,0,0,0-.4-.607h0l-3.166,0a.435.435,0,0,0-.4.276l-3.7,9.463-.4-1.442a.413.413,0,0,0-.02-.056A14.81,14.81,0,0,0,84.057,178.545Z" transform="translate(-80.715 -175.43)"/></g></g><text class="e" transform="translate(186 499)"><tspan x="0" y="0">7924</tspan></text><text class="f" transform="translate(118 549)"><tspan x="0" y="0">11/23</tspan></text><text class="g" transform="translate(43 531)"><tspan x="0" y="0">CVC</tspan></text><text class="g" transform="translate(118 531)"><tspan x="0" y="0">Expires</tspan></text><text class="f" transform="translate(43 549)"><tspan x="0" y="0">245</tspan></text><g class="h" transform="translate(42 492)"><g transform="translate(-42 -502)"><circle class="d" cx="2" cy="2" r="2" transform="translate(42 502)"/><circle class="d" cx="2" cy="2" r="2" transform="translate(71 502)"/><circle class="d" cx="2" cy="2" r="2" transform="translate(61 502)"/><circle class="d" cx="2" cy="2" r="2" transform="translate(52 502)"/></g><g transform="translate(6 -502)"><circle class="d" cx="2" cy="2" r="2" transform="translate(42 502)"/><circle class="d" cx="2" cy="2" r="2" transform="translate(71 502)"/><circle class="d" cx="2" cy="2" r="2" transform="translate(61 502)"/><circle class="d" cx="2" cy="2" r="2" transform="translate(52 502)"/></g><g transform="translate(54 -502)"><circle class="d" cx="2" cy="2" r="2" transform="translate(42 502)"/><circle class="d" cx="2" cy="2" r="2" transform="translate(71 502)"/><circle class="d" cx="2" cy="2" r="2" transform="translate(61 502)"/><circle class="d" cx="2" cy="2" r="2" transform="translate(52 502)"/></g></g></g></svg>