<svg xmlns="http://www.w3.org/2000/svg" xmlns:xlink="http://www.w3.org/1999/xlink" width="22.001" height="21.978" viewBox="0 0 22.001 21.978"><defs><style>.a{fill:none;}.b{clip-path:url(#a);}.c{fill:#162fe8;}</style><clipPath id="a"><rect class="a" width="22.001" height="21.978"/></clipPath></defs><g class="b"><path class="c" d="M25.088,37.192a.664.664,0,0,1-.607-.112l-4.207-3.217a.675.675,0,0,1,.81-1.08L24.8,35.64l7.176-8.571a.671.671,0,1,1,1.035.855l-7.6,9.066A.547.547,0,0,1,25.088,37.192Z" transform="translate(-15.752 -20.995)"/><path class="c" d="M17.589,22.878H6.611A5.52,5.52,0,0,1,1.1,17.367V6.411A5.52,5.52,0,0,1,6.611.9H17.589A5.52,5.52,0,0,1,23.1,6.411V17.389A5.5,5.5,0,0,1,17.589,22.878ZM6.611,1.912a4.512,4.512,0,0,0-4.5,4.5V17.389a4.512,4.512,0,0,0,4.5,4.5H17.589a4.512,4.512,0,0,0,4.5-4.5V6.411a4.512,4.512,0,0,0-4.5-4.5Z" transform="translate(-1.1 -0.9)"/></g></svg>