<svg xmlns="http://www.w3.org/2000/svg" xmlns:xlink="http://www.w3.org/1999/xlink" width="45" height="45" viewBox="0 0 45 45"><defs><style>.a{fill:none;}.b{clip-path:url(#a);}.c{fill:#d03521;}</style><clipPath id="a"><rect class="a" width="45" height="45"/></clipPath></defs><g class="b"><path class="c" d="M34.681,46.1H12.273A11.291,11.291,0,0,1,1,34.827V12.373A11.291,11.291,0,0,1,12.273,1.1H34.727A11.291,11.291,0,0,1,46,12.373V34.827A11.361,11.361,0,0,1,34.681,46.1ZM12.273,3.171a9.23,9.23,0,0,0-9.2,9.2V34.827a9.23,9.23,0,0,0,9.2,9.2H34.727a9.23,9.23,0,0,0,9.2-9.2V12.373a9.23,9.23,0,0,0-9.2-9.2Z" transform="translate(-1 -1.1)"/><path class="c" d="M48.28,32.126,41.106,39.3l-7.224-7.174a1.242,1.242,0,0,0-1.756,1.756L39.3,41.056,32.126,48.28a1.242,1.242,0,0,0,1.756,1.756l7.174-7.174,7.174,7.174a1.242,1.242,0,0,0,1.756-1.756l-7.124-7.224,7.174-7.174a1.242,1.242,0,0,0-1.756-1.756Z" transform="translate(-18.385 -18.429)"/></g></svg>