<svg xmlns="http://www.w3.org/2000/svg" xmlns:xlink="http://www.w3.org/1999/xlink" width="45.046" height="45" viewBox="0 0 45.046 45"><defs><style>.a{fill:none;}.b{clip-path:url(#a);}.c{fill:#162fe8;}</style><clipPath id="a"><rect class="a" width="45.046" height="45"/></clipPath></defs><g class="b"><path class="c" d="M30.387,48a1.356,1.356,0,0,1-1.241-.23L20.554,41.2a1.378,1.378,0,0,1,1.654-2.206l7.581,5.835L44.447,27.32a1.371,1.371,0,1,1,2.114,1.746L31.03,47.583A1.116,1.116,0,0,1,30.387,48Z" transform="translate(-11.318 -14.859)"/><path class="c" d="M34.861,45.9H12.384A11.3,11.3,0,0,1,1.1,34.615V12.185A11.3,11.3,0,0,1,12.384.9H34.861A11.3,11.3,0,0,1,46.146,12.185V34.662A11.264,11.264,0,0,1,34.861,45.9ZM12.384,2.973a9.239,9.239,0,0,0-9.212,9.212V34.662a9.239,9.239,0,0,0,9.212,9.212H34.861a9.239,9.239,0,0,0,9.212-9.212V12.185a9.239,9.239,0,0,0-9.212-9.212Z" transform="translate(-1.1 -0.9)"/></g></svg>